<svg version="1.2" xmlns="http://www.w3.org/2000/svg" viewBox="0 0 620 88" width="620" height="88">
	<title>New Project</title>
	<style>
		.s0 { fill: #ffffff } 
		.s1 { opacity: .7;fill: #ffffff } 
	</style>
	<path id="IBRAHIM QAZI." fill-rule="evenodd" class="s0" d="m87.4 76q-1.9 0-3.5-0.9-1.6-0.8-1.6-2.5v-63.5q0-1.7 1.6-2.5 1.6-0.8 3.5-0.8 1.9 0 3.5 0.8 1.6 0.8 1.6 2.5v63.5q0 1.7-1.6 2.5-1.6 0.9-3.5 0.9zm41.8 0h-19.5q-2 0-3.3-1-1.2-0.9-1.2-2.3v-63.5q0-1.6 1.4-2.5 1.5-0.9 3.1-0.9h17.5q5.2 0 9.6 1.4 4.4 1.3 7.1 5 2.7 3.5 2.7 10.2 0 6.1-2.2 10-2.2 4-6 5.6 3 1.1 5.2 3.1 2.2 1.8 3.4 4.9 1.3 3.1 1.3 8v1.8q0 7.4-2.5 11.8-2.5 4.5-6.8 6.5-4.3 1.9-9.8 1.9zm-13.9-34v25h12q5.1 0 7.9-2.8 2.9-2.9 2.9-9.1v-1.6q0-6.3-2.9-8.9-2.8-2.6-7.9-2.6zm0-27.2v19.2h11.5q4.9 0 7.2-2.5 2.4-2.5 2.4-7.4 0-3.3-1.3-5.3-1.1-2-3.3-3-2.2-1-5.2-1zm80.8 61.5q-1.2 0-2.3-0.9-0.9-0.8-1.6-2.1l-14.1-27.4h-9.6v26.7q0 1.7-1.7 2.5-1.5 0.9-3.4 0.9-1.9 0-3.6-0.9-1.5-0.8-1.5-2.5v-63.5q0-1.4 0.9-2.3 0.9-1 2.6-1h18.2q6 0 11 1.8 5 1.8 8 6.1 3 4.2 3 11.7 0 5.8-1.8 9.6-1.8 3.8-4.8 6.2-3 2.2-6.9 3.2l13.5 25.3q0.2 0.3 0.3 0.7 0.1 0.4 0.1 0.7 0 1.3-1 2.5-1 1.2-2.4 1.9-1.3 0.8-2.9 0.8zm-27.6-61.5v22.9h11.5q5.4 0 8.5-2.6 3.3-2.6 3.3-8.8 0-6.3-3.3-8.9-3.1-2.6-8.5-2.6zm44.2 61.2q-1.4 0-2.9-0.6-1.6-0.6-2.5-1.4-1-1-1-2.2 0-0.3 0.1-0.9l19.1-62.2q0.6-1.7 2.4-2.6 1.9-0.9 4.1-0.9 2.2 0 4 0.9 1.9 0.9 2.5 2.6l19 62.2q0.2 0.6 0.2 0.9 0 1.1-1.1 2.1-0.9 0.9-2.5 1.5-1.4 0.6-2.9 0.6-1.2 0-2.2-0.5-0.8-0.5-1.2-1.6l-3.9-13.6h-23.9l-3.8 13.6q-0.3 1.1-1.3 1.6-1 0.5-2.2 0.5zm19.3-56.8l-9.6 32.9h19.2zm38.4 56.8q-2 0-3.6-0.8-1.5-0.9-1.5-2.5v-63.6q0-1.7 1.5-2.5 1.6-0.7 3.6-0.7 1.9 0 3.4 0.7 1.6 0.8 1.6 2.5v26.5h23.9v-26.5q0-1.7 1.6-2.5 1.6-0.7 3.5-0.7 2 0 3.5 0.7 1.6 0.8 1.6 2.5v63.6q0 1.6-1.6 2.5-1.5 0.8-3.5 0.8-1.9 0-3.5-0.8-1.6-0.9-1.6-2.5v-29h-23.9v29q0 1.6-1.6 2.5-1.5 0.8-3.4 0.8zm56.9 0q-1.9 0-3.6-0.8-1.5-0.9-1.5-2.5v-63.6q0-1.7 1.5-2.5 1.7-0.7 3.6-0.7 1.9 0 3.4 0.7 1.7 0.8 1.7 2.5v63.6q0 1.6-1.7 2.5-1.5 0.8-3.4 0.8zm22.8 0q-1.9 0-3.5-0.8-1.6-0.9-1.6-2.5v-61.8q0-2.8 1.6-3.9 1.6-1.1 3.5-1.1 1.9 0 3.2 0.5 1.3 0.5 2.5 1.8 1.1 1.2 2.4 3.4l13.4 25.5 13.7-25.5q1.2-2.2 2.3-3.4 1.1-1.3 2.5-1.8 1.3-0.5 3.1-0.5 2 0 3.6 1.1 1.5 1.1 1.5 3.9v61.8q0 1.6-1.6 2.5-1.5 0.8-3.5 0.8-1.9 0-3.5-0.8-1.6-0.9-1.6-2.5v-46.1l-12.8 23.8q-0.8 1.2-1.7 1.8-1 0.5-2.1 0.5-0.8 0-1.8-0.5-0.9-0.5-1.6-1.8l-12.9-24.4v46.7q0 1.6-1.6 2.5-1.6 0.8-3.5 0.8zm100.9 10.5q-1.2 0-2.3-0.9-1-0.8-1-2.5v-6.7q-5.3-0.5-9.4-2.8-4.2-2.3-6.5-6.8-2.3-4.6-2.3-11.6v-27.9q0-7.9 2.8-12.5 2.9-4.7 7.7-6.8 4.9-2.1 11-2.1 6.1 0 11 2.1 4.9 2.1 7.7 6.8 2.9 4.6 2.9 12.5v27.9q0 7-2.4 11.6-2.3 4.5-6.4 6.8-4.1 2.3-9.3 2.8v6.7q0 1.7-1.2 2.5-1 0.9-2.3 0.9zm-3.3-19.5v-5.9q0-1.7 1-2.4 1.1-0.8 2.3-0.8 1.3 0 2.3 0.8 1.2 0.7 1.2 2.4v5.8q3.7-0.8 5.8-3.6 2.1-2.9 2.1-8.1v-27.9q0-6.4-3-9.4-3.1-3-8.4-3-5.4 0-8.4 3-3 3-3 9.4v27.9q0 5.2 2.1 8.1 2.1 2.8 6 3.7zm38.1 9q-1.4 0-2.9-0.5-1.5-0.6-2.5-1.5-1-0.9-1-2.2 0-0.3 0.1-0.9l19.1-62.2q0.6-1.7 2.4-2.6 2-0.8 4.1-0.8 2.2 0 4 0.8 1.9 0.9 2.5 2.6l19 62.2q0.2 0.6 0.2 0.9 0 1.2-1.1 2.1-0.9 1-2.5 1.6-1.4 0.5-2.8 0.5-1.3 0-2.2-0.5-0.9-0.4-1.3-1.6l-3.9-13.6h-23.8l-3.9 13.6q-0.3 1.2-1.3 1.6-1 0.5-2.2 0.5zm19.3-56.8l-9.6 32.9h19.2zm70.6 56.9h-38.9q-1.6 0-2.4-0.9-0.7-0.9-0.7-2.1 0-1.7 1-3.6l29.8-54.6h-26q-1.6 0-2.5-1.3-0.9-1.4-0.9-3.2 0-1.6 0.8-3.1 0.9-1.4 2.6-1.4h35.8q1.6 0 2.4 0.8 0.9 0.8 0.9 2.1 0 1.6-1.2 3.7l-29.8 54.5h29.1q1.7 0 2.5 1.5 0.9 1.4 0.9 3 0 1.7-0.9 3.1-0.8 1.5-2.5 1.5zm16.3 0q-1.9 0-3.5-0.9-1.5-0.9-1.5-2.5v-63.6q0-1.7 1.5-2.5 1.6-0.7 3.5-0.7 2 0 3.5 0.7 1.6 0.8 1.6 2.5v63.6q0 1.6-1.6 2.5-1.5 0.9-3.5 0.9zm20.3 0.5q-2.5 0-4.1-1.7-1.7-1.7-1.7-4 0-2.4 1.7-4.1 1.6-1.7 4.1-1.7 2.3 0 3.9 1.7 1.8 1.7 1.8 4.1 0 2.3-1.8 4-1.6 1.7-3.9 1.7z"/>
	<g id="Layer">
		<path id="Layer" class="s1" d="m13.5 35.9v11.7c0 1.7-1.5 2.9-3.8 2.9-2.2 0-3.7-1.2-3.7-2.9v-11.7c0-1.8 1.5-3 3.7-3 2.3 0 3.8 1.2 3.8 3z"/>
		<path id="Layer" class="s1" d="m28.4 30v23.4c0 1.8-1.5 3-3.7 3-2.3 0-3.7-1.2-3.7-3v-23.4c0-1.8 1.4-2.9 3.7-2.9 2.2 0 3.7 1.1 3.7 2.9z"/>
		<path id="Layer" class="s1" d="m43.4 15.3v52.8c0 1.8-1.5 2.9-3.8 2.9-2.2 0-3.7-1.1-3.7-2.9v-52.8c0-1.7 1.5-2.9 3.7-2.9 2.3 0 3.8 1.2 3.8 2.9z"/>
		<path id="Layer" class="s1" d="m58.3 35.9v11.7c0 1.7-1.5 2.9-3.7 2.9-2.3 0-3.7-1.2-3.7-2.9v-11.7c0-1.8 1.4-3 3.7-3 2.2 0 3.7 1.2 3.7 3z"/>
	</g>
</svg>